<?xml version="1.0" standalone="no"?>
<!DOCTYPE svg PUBLIC "-//W3C//DTD SVG 20010904//EN"
 "http://www.w3.org/TR/2001/REC-SVG-20010904/DTD/svg10.dtd">
<svg version="1.0" xmlns="http://www.w3.org/2000/svg"
 width="300.000000pt" height="240.000000pt" viewBox="0 0 300.000000 240.000000"
 preserveAspectRatio="xMidYMid meet">

<g transform="translate(0.000000,240.000000) scale(0.100000,-0.100000)"
fill="#000000" stroke="none">
<path d="M916 2062 c-3 -6 -1 -14 5 -17 15 -10 25 3 12 16 -7 7 -13 7 -17 1z"/>
<path d="M962 2039 c2 -7 10 -15 17 -17 8 -3 12 1 9 9 -2 7 -10 15 -17 17 -8
3 -12 -1 -9 -9z"/>
<path d="M1012 2018 c5 -15 28 -23 28 -10 0 5 -7 13 -16 16 -10 4 -14 1 -12
-6z"/>
<path d="M1060 2001 c0 -6 9 -15 20 -21 13 -7 20 -7 20 -1 0 6 -9 15 -20 21
-13 7 -20 7 -20 1z"/>
<path d="M1110 1981 c0 -6 9 -15 20 -21 13 -7 20 -7 20 -1 0 6 -9 15 -20 21
-13 7 -20 7 -20 1z"/>
<path d="M1290 1958 c-11 -12 -20 -25 -20 -30 0 -4 -11 -3 -25 2 -30 11 -35
-4 -6 -20 13 -6 17 -17 14 -30 -11 -41 6 -69 55 -94 92 -46 87 -48 132 50 22
48 39 89 37 91 -5 4 -149 53 -158 53 -5 0 -17 -10 -29 -22z"/>
<path d="M1172 1949 c2 -7 10 -15 17 -17 8 -3 12 1 9 9 -2 7 -10 15 -17 17 -8
3 -12 -1 -9 -9z"/>
<path d="M1514 1804 c-9 -20 -12 -40 -7 -44 9 -9 420 -170 433 -170 13 0 42
72 33 80 -9 8 -425 170 -436 170 -5 0 -15 -16 -23 -36z"/>
<path d="M1508 1561 c2 -16 -3 -39 -12 -54 -15 -23 -15 -25 -1 -31 9 -3 20 -6
24 -6 9 0 46 89 40 94 -6 5 -47 26 -52 26 -2 0 -2 -13 1 -29z"/>
<path d="M1752 1487 c-9 -11 -32 -155 -32 -204 0 -8 13 -13 30 -13 26 0 33 7
55 51 15 28 44 70 66 94 21 23 39 45 39 48 0 8 -98 37 -126 37 -12 0 -26 -6
-32 -13z"/>
<path d="M1629 1141 c-22 -21 -39 -46 -39 -55 0 -17 95 -116 111 -116 7 0 49
167 49 196 0 10 -12 14 -41 14 -35 0 -48 -6 -80 -39z"/>
<path d="M630 655 l0 -115 25 0 c23 0 25 4 25 45 0 45 0 45 35 45 35 0 35 0
35 -45 0 -41 2 -45 25 -45 l25 0 0 115 0 115 -25 0 c-23 0 -25 -4 -25 -45 0
-45 0 -45 -35 -45 -35 0 -35 0 -35 45 0 41 -2 45 -25 45 l-25 0 0 -115z"/>
<path d="M886 762 c-5 -8 -56 -205 -56 -216 0 -3 11 -6 24 -6 18 0 25 6 28 23
3 19 9 22 43 22 34 0 40 -3 43 -22 3 -17 10 -23 28 -23 29 0 29 -2 2 127 l-21
103 -43 0 c-24 0 -45 -4 -48 -8z m54 -51 c0 -5 3 -23 6 -40 6 -29 4 -31 -21
-31 -25 0 -26 2 -20 33 4 17 9 35 12 40 6 10 23 9 23 -2z"/>
<path d="M1050 655 l0 -115 25 0 c23 0 25 4 25 40 0 35 3 40 23 40 19 0 26 -8
36 -40 10 -33 16 -40 36 -40 29 0 30 8 11 55 -13 30 -13 38 0 65 19 36 11 86
-16 100 -10 6 -46 10 -79 10 l-61 0 0 -115z m110 40 c0 -21 -5 -25 -30 -25
-25 0 -30 4 -30 25 0 21 5 25 30 25 25 0 30 -4 30 -25z"/>
<path d="M1260 655 l0 -115 68 0 c40 0 73 5 80 12 8 8 12 46 12 105 0 109 -4
113 -99 113 l-61 0 0 -115z m110 -5 l0 -70 -30 0 -30 0 0 70 0 70 30 0 30 0 0
-70z"/>
<path d="M1472 658 l3 -113 48 -3 c27 -2 55 2 62 8 9 8 15 8 20 0 11 -17 102
-13 109 6 3 9 6 60 6 115 0 99 0 99 -25 99 -24 0 -24 -2 -27 -92 -3 -88 -4
-93 -25 -96 -22 -3 -23 -1 -23 92 0 95 0 96 -25 96 -24 0 -24 -2 -27 -92 -3
-85 -5 -93 -23 -93 -18 0 -20 8 -23 93 -3 91 -3 92 -28 92 l-25 0 3 -112z"/>
<path d="M1800 745 c-12 -31 -50 -179 -50 -194 0 -6 11 -11 24 -11 18 0 25 6
28 23 2 18 10 23 40 25 33 3 38 0 44 -22 4 -19 13 -26 30 -26 13 0 24 3 24 8
0 4 -10 55 -22 115 l-23 107 -43 0 c-36 0 -44 -4 -52 -25z m60 -42 c0 -10 3
-28 6 -40 5 -20 2 -23 -21 -23 -25 0 -26 2 -20 33 4 17 9 35 12 40 8 13 23 7
23 -10z"/>
<path d="M1970 655 l0 -115 25 0 c23 0 25 4 25 40 0 35 3 40 23 40 19 0 26 -8
36 -40 10 -33 16 -40 36 -40 29 0 29 -3 10 51 -11 29 -12 46 -5 53 5 5 10 31
10 58 0 58 -14 68 -99 68 l-61 0 0 -115z m110 40 c0 -21 -5 -25 -30 -25 -25 0
-30 4 -30 25 0 21 5 25 30 25 25 0 30 -4 30 -25z"/>
<path d="M2177 763 c-4 -3 -7 -55 -7 -115 l0 -108 70 0 c68 0 70 1 70 25 0 23
-4 25 -40 25 -33 0 -40 3 -40 19 0 16 8 20 38 23 29 2 37 7 37 23 0 16 -8 21
-37 23 -30 3 -38 7 -38 23 0 16 7 19 40 19 36 0 40 3 40 25 0 24 -2 25 -63 25
-35 0 -67 -3 -70 -7z"/>
<path d="M1638 449 c-14 -8 -18 -24 -18 -77 0 -78 9 -92 60 -92 51 0 60 14 60
92 0 56 -3 69 -19 78 -25 13 -61 12 -83 -1z m62 -79 c0 -43 -3 -50 -20 -50
-17 0 -20 7 -20 50 0 43 3 50 20 50 17 0 20 -7 20 -50z"/>
<path d="M1000 365 l0 -85 50 0 c43 0 50 3 50 20 0 16 -7 20 -30 20 -20 0 -30
5 -30 15 0 10 10 15 31 15 24 0 30 4 27 18 -2 10 -14 18 -31 20 -38 5 -36 32
3 32 20 0 30 5 30 15 0 11 -12 15 -50 15 l-50 0 0 -85z"/>
<path d="M1132 438 c-7 -7 -12 -24 -12 -40 0 -29 23 -48 59 -48 12 0 21 -7 21
-15 0 -10 -11 -15 -35 -15 -28 0 -35 -4 -35 -20 0 -17 7 -20 39 -20 45 0 71
20 71 55 0 26 -33 55 -62 55 -10 0 -18 7 -18 15 0 10 11 15 35 15 24 0 35 5
35 15 0 19 -80 21 -98 3z"/>
<path d="M1250 435 c0 -8 9 -15 20 -15 18 0 20 -7 20 -71 0 -62 2 -70 18 -67
14 3 18 16 20 71 2 51 6 67 17 67 8 0 15 7 15 15 0 12 -13 15 -55 15 -42 0
-55 -3 -55 -15z"/>
<path d="M1480 436 c0 -12 10 -16 35 -16 45 0 45 -18 0 -48 -29 -18 -35 -28
-35 -57 l0 -35 55 0 c48 0 55 2 55 20 0 16 -7 20 -35 20 -45 0 -44 12 1 39 30
18 35 25 32 54 -3 31 -4 32 -55 35 -43 2 -53 0 -53 -12z"/>
<path d="M1780 436 c0 -11 9 -16 29 -16 46 0 46 -17 1 -45 -34 -22 -40 -30
-40 -60 l0 -35 55 0 c48 0 55 2 55 20 0 16 -7 20 -35 20 -45 0 -44 12 0 36 32
17 36 23 33 54 -3 34 -4 35 -50 38 -38 2 -48 0 -48 -12z"/>
<path d="M1916 435 c-22 -17 -12 -38 15 -30 17 6 19 1 19 -40 0 -38 -4 -48
-20 -52 -11 -3 -20 -12 -20 -19 0 -10 14 -14 50 -14 38 0 50 4 50 15 0 8 -4
15 -10 15 -6 0 -10 30 -10 70 0 70 0 70 -27 70 -16 0 -36 -7 -47 -15z"/>
<path d="M1374 309 c-8 -14 11 -33 25 -25 16 10 13 36 -3 36 -8 0 -18 -5 -22
-11z"/>
</g>
</svg>
